<svg width="4229" height="300" viewBox="0 0 4229 300" fill="none" xmlns="http://www.w3.org/2000/svg">
<path d="M381.204 299.805H351.049L438.265 0H467.956L555.172 299.805H525.017L454.038 47.4301H452.183L381.204 299.805Z" fill="black"/>
<path d="M555.828 32.2056V0H771.498V32.2056H681.074V299.805H646.252V32.2056H555.828Z" fill="black"/>
<path d="M842.518 300V0H874.509V133.594H1015.37V0H1047.36V300H1015.37V165.82H874.509V300H842.518Z" fill="black"/>
<path d="M2005 0V299.805H1975.44L1837.98 64.4113H1835.52V299.805H1804.98V0H1834.54L1972.48 235.979H1974.95V0H2005Z" fill="black"/>
<path d="M1742.19 149.903C1742.19 180.681 1735.59 207.28 1722.4 229.699C1709.2 252.118 1691.1 269.407 1668.1 281.566C1645.1 293.725 1618.82 299.805 1589.28 299.805C1559.74 299.805 1533.46 293.725 1510.46 281.566C1487.46 269.407 1469.36 252.118 1456.16 229.699C1442.97 207.28 1436.37 180.681 1436.37 149.903C1436.37 119.124 1442.97 92.5254 1456.16 70.1065C1469.36 47.6877 1487.46 30.3985 1510.46 18.2391C1533.46 6.0797 1559.74 0 1589.28 0C1618.82 0 1645.1 6.0797 1668.1 18.2391C1691.1 30.3985 1709.2 47.6877 1722.4 70.1065C1735.59 92.5254 1742.19 119.124 1742.19 149.903ZM1701.59 149.903C1701.59 124.634 1696.57 103.307 1686.54 85.9233C1676.61 68.5391 1663.14 55.3823 1646.11 46.4527C1629.2 37.5231 1610.25 33.0584 1589.28 33.0584C1568.31 33.0584 1549.31 37.5231 1532.28 46.4527C1515.36 55.3823 1501.89 68.5391 1491.85 85.9233C1481.93 103.307 1476.97 124.634 1476.97 149.903C1476.97 175.171 1481.93 196.498 1491.85 213.882C1501.89 231.266 1515.36 244.423 1532.28 253.352C1549.31 262.282 1568.31 266.747 1589.28 266.747C1610.25 266.747 1629.2 262.282 1646.11 253.352C1663.14 244.423 1676.61 231.266 1686.54 213.882C1696.57 196.498 1701.59 175.171 1701.59 149.903Z" fill="black"/>
<path d="M1375.02 129H1129.28L1129.28 164H1375.02V129Z" fill="black"/>
<path d="M1375.02 265H1129.28L1129.28 300H1375.02V265Z" fill="black"/>
<ellipse cx="450.742" cy="245.639" rx="19.7418" ry="19.639" fill="#027CEE"/>
<path d="M153.351 299.805L0 0H53.0204L177.007 252.375H181.901L246.147 133.247H290.751L205.556 299.805H153.351Z" fill="#027CEE"/>
<path d="M218.063 68.6121H329.329L304.7 112.862L235.64 112.588L218.063 68.6121Z" fill="#027CEE"/>
<path d="M201.008 0H350.851L335.061 34.3061H212.346L201.008 0Z" fill="#027CEE"/>
<path d="M1375 6H1129L1129 40H1375V6Z" fill="black"/>
<path d="M4012.93 300C4005 300 3997.68 297.822 3990.96 293.467C3984.48 289.111 3979.32 283.258 3975.47 275.908C3971.63 268.286 3969.71 259.983 3969.71 251V239.567H3998.88V251C3998.88 255.356 4000.2 259.167 4002.84 262.433C4005.72 265.428 4009.09 266.925 4012.93 266.925H4185.79C4189.63 266.925 4192.87 265.428 4195.51 262.433C4198.39 259.167 4199.83 255.356 4199.83 251V185.258C4199.83 180.903 4198.39 177.228 4195.51 174.233C4192.87 171.239 4189.63 169.742 4185.79 169.742H4012.93C4005 169.742 3997.68 167.564 3990.96 163.208C3984.48 158.581 3979.32 152.592 3975.47 145.242C3971.63 137.892 3969.71 129.725 3969.71 120.742V55C3969.71 46.0167 3971.63 37.85 3975.47 30.5C3979.32 22.8778 3984.48 16.8889 3990.96 12.5333C3997.68 8.17777 4005 6 4012.93 6H4185.79C4193.71 6 4200.91 8.17777 4207.39 12.5333C4214.11 16.8889 4219.4 22.8778 4223.24 30.5C4227.08 37.85 4229 46.0167 4229 55V66.4333H4199.83V55C4199.83 50.6444 4198.39 46.9694 4195.51 43.975C4192.87 40.7083 4189.63 39.075 4185.79 39.075H4012.93C4009.09 39.075 4005.72 40.7083 4002.84 43.975C4000.2 46.9694 3998.88 50.6444 3998.88 55V120.742C3998.88 125.097 4000.2 128.772 4002.84 131.767C4005.72 134.761 4009.09 136.258 4012.93 136.258H4185.79C4193.71 136.258 4200.91 138.572 4207.39 143.2C4214.11 147.556 4219.4 153.408 4223.24 160.758C4227.08 168.108 4229 176.275 4229 185.258V251C4229 259.983 4227.08 268.286 4223.24 275.908C4219.4 283.258 4214.11 289.111 4207.39 293.467C4200.91 297.822 4193.71 300 4185.79 300H4012.93Z" fill="black"/>
<path d="M3637.42 300V6H3677.39L3785.07 151.367L3892.74 6H3932.72V300H3903.55V43.5667L3785.07 203.225L3666.59 43.5667V300H3637.42Z" fill="black"/>
<path d="M3372.97 300V6H3609.57V39.075H3402.14V136.258H3568.87V169.742H3402.14V266.925H3609.57V300H3372.97Z" fill="black"/>
<path d="M3201.27 300V39.075H3086.03V6H3345.31V39.075H3230.44V300H3201.27Z" fill="black"/>
<path d="M2844.29 300C2836.37 300 2829.04 297.822 2822.32 293.467C2815.84 289.111 2810.68 283.258 2806.84 275.908C2803 268.286 2801.08 259.983 2801.08 251V239.567H2830.25V251C2830.25 255.356 2831.57 259.167 2834.21 262.433C2837.09 265.428 2840.45 266.925 2844.29 266.925H3017.15C3020.99 266.925 3024.23 265.428 3026.87 262.433C3029.75 259.167 3031.19 255.356 3031.19 251V185.258C3031.19 180.903 3029.75 177.228 3026.87 174.233C3024.23 171.239 3020.99 169.742 3017.15 169.742H2844.29C2836.37 169.742 2829.04 167.564 2822.32 163.208C2815.84 158.581 2810.68 152.592 2806.84 145.242C2803 137.892 2801.08 129.725 2801.08 120.742V55C2801.08 46.0167 2803 37.85 2806.84 30.5C2810.68 22.8778 2815.84 16.8889 2822.32 12.5333C2829.04 8.17777 2836.37 6 2844.29 6H3017.15C3025.07 6 3032.27 8.17777 3038.76 12.5333C3045.48 16.8889 3050.76 22.8778 3054.6 30.5C3058.44 37.85 3060.36 46.0167 3060.36 55V66.4333H3031.19V55C3031.19 50.6444 3029.75 46.9694 3026.87 43.975C3024.23 40.7083 3020.99 39.075 3017.15 39.075H2844.29C2840.45 39.075 2837.09 40.7083 2834.21 43.975C2831.57 46.9694 2830.25 50.6444 2830.25 55V120.742C2830.25 125.097 2831.57 128.772 2834.21 131.767C2837.09 134.761 2840.45 136.258 2844.29 136.258H3017.15C3025.07 136.258 3032.27 138.572 3038.76 143.2C3045.48 147.556 3050.76 153.408 3054.6 160.758C3058.44 168.108 3060.36 176.275 3060.36 185.258V251C3060.36 259.983 3058.44 268.286 3054.6 275.908C3050.76 283.258 3045.48 289.111 3038.76 293.467C3032.27 297.822 3025.07 300 3017.15 300H2844.29Z" fill="black"/>
<path d="M2635.96 300V189.342L2516.76 6H2550.25L2650.72 149.733L2750.11 6H2784.33L2665.13 189.342V300H2635.96Z" fill="black"/>
<path d="M2274.21 300C2266.29 300 2258.97 297.822 2252.25 293.467C2245.76 289.111 2240.6 283.258 2236.76 275.908C2232.92 268.286 2231 259.983 2231 251V239.567H2260.17V251C2260.17 255.356 2261.49 259.167 2264.13 262.433C2267.01 265.428 2270.37 266.925 2274.21 266.925H2447.07C2450.91 266.925 2454.16 265.428 2456.8 262.433C2459.68 259.167 2461.12 255.356 2461.12 251V185.258C2461.12 180.903 2459.68 177.228 2456.8 174.233C2454.16 171.239 2450.91 169.742 2447.07 169.742H2274.21C2266.29 169.742 2258.97 167.564 2252.25 163.208C2245.76 158.581 2240.6 152.592 2236.76 145.242C2232.92 137.892 2231 129.725 2231 120.742V55C2231 46.0167 2232.92 37.85 2236.76 30.5C2240.6 22.8778 2245.76 16.8889 2252.25 12.5333C2258.97 8.17777 2266.29 6 2274.21 6H2447.07C2455 6 2462.2 8.17777 2468.68 12.5333C2475.4 16.8889 2480.68 22.8778 2484.53 30.5C2488.37 37.85 2490.29 46.0167 2490.29 55V66.4333H2461.12V55C2461.12 50.6444 2459.68 46.9694 2456.8 43.975C2454.16 40.7083 2450.91 39.075 2447.07 39.075H2274.21C2270.37 39.075 2267.01 40.7083 2264.13 43.975C2261.49 46.9694 2260.17 50.6444 2260.17 55V120.742C2260.17 125.097 2261.49 128.772 2264.13 131.767C2267.01 134.761 2270.37 136.258 2274.21 136.258H2447.07C2455 136.258 2462.2 138.572 2468.68 143.2C2475.4 147.556 2480.68 153.408 2484.53 160.758C2488.37 168.108 2490.29 176.275 2490.29 185.258V251C2490.29 259.983 2488.37 268.286 2484.53 275.908C2480.68 283.258 2475.4 289.111 2468.68 293.467C2462.2 297.822 2455 300 2447.07 300H2274.21Z" fill="black"/>
</svg>
