<svg width="1991" height="300" viewBox="0 0 1991 300" fill="none" xmlns="http://www.w3.org/2000/svg">
<path d="M157.252 299.805L0 0H54.3691L181.509 252.375H186.528L252.408 133.247H298.147L210.785 299.805H157.252Z" fill="#027CEE"/>
<path d="M223.61 68.6121H337.705L312.45 112.862L241.633 112.588L223.61 68.6121Z" fill="#027CEE"/>
<path d="M206.121 0H359.775L343.584 34.3061H217.748L206.121 0Z" fill="#027CEE"/>
<path d="M371.416 299.805H337.706L435.205 0H468.397L565.896 299.805H532.186L452.838 47.4301H450.764L371.416 299.805Z" fill="white"/>
<path d="M565.896 32.2056V0H806.996V32.2056H705.91V299.805H666.982V32.2056H565.896Z" fill="white"/>
<path d="M833.242 300V0H868.934V133.594H1026.09V0H1061.78V300H1026.09V165.82H868.934V300H833.242Z" fill="white"/>
<path d="M1990.61 0V299.805H1957.56L1803.9 64.4113H1801.15V299.805H1767V0H1800.05L1954.26 235.979H1957.01V0H1990.61Z" fill="white"/>
<path d="M1740.87 149.903C1740.87 180.681 1733.5 207.28 1718.75 229.699C1704 252.118 1683.77 269.407 1658.05 281.566C1632.33 293.725 1602.96 299.805 1569.93 299.805C1536.91 299.805 1507.54 293.725 1481.82 281.566C1456.1 269.407 1435.87 252.118 1421.12 229.699C1406.37 207.28 1399 180.681 1399 149.903C1399 119.124 1406.37 92.5254 1421.12 70.1065C1435.87 47.6877 1456.1 30.3985 1481.82 18.2391C1507.54 6.0797 1536.91 0 1569.93 0C1602.96 0 1632.33 6.0797 1658.05 18.2391C1683.77 30.3985 1704 47.6877 1718.75 70.1065C1733.5 92.5254 1740.87 119.124 1740.87 149.903ZM1695.49 149.903C1695.49 124.634 1689.88 103.307 1678.66 85.9233C1667.57 68.5391 1652.5 55.3823 1633.47 46.4527C1614.56 37.5232 1593.38 33.0584 1569.93 33.0584C1546.49 33.0584 1525.25 37.5232 1506.21 46.4527C1487.3 55.3823 1472.24 68.5391 1461.02 85.9233C1449.93 103.307 1444.38 124.634 1444.38 149.903C1444.38 175.171 1449.93 196.498 1461.02 213.882C1472.24 231.266 1487.3 244.423 1506.21 253.352C1525.25 262.282 1546.49 266.747 1569.93 266.747C1593.38 266.747 1614.56 262.282 1633.47 253.352C1652.5 244.423 1667.57 231.266 1678.66 213.882C1689.88 196.498 1695.49 175.171 1695.49 149.903Z" fill="white"/>
<path d="M1372.89 0H1105.14L1105.14 34.3061H1372.89V0Z" fill="white"/>
<path d="M1372.89 132.75H1105.14L1105.14 167.056H1372.89V132.75Z" fill="white"/>
<path d="M1372.89 265.499H1105.14L1105.14 299.805H1372.89V265.499Z" fill="white"/>
<ellipse cx="451.801" cy="245.86" rx="22.0695" ry="19.639" fill="#027CEE"/>
</svg>
