<svg width="2005" height="300" viewBox="0 0 2005 300" fill="none" xmlns="http://www.w3.org/2000/svg">
<path d="M381.204 299.805H351.049L438.265 0H467.956L555.172 299.805H525.017L454.038 47.4301H452.183L381.204 299.805Z" fill="white"/>
<path d="M555.828 32.2056V0H771.498V32.2056H681.074V299.805H646.252V32.2056H555.828Z" fill="white"/>
<path d="M842.518 300V0H874.509V133.594H1015.37V0H1047.36V300H1015.37V165.82H874.509V300H842.518Z" fill="white"/>
<path d="M2005 0V299.805H1975.44L1837.98 64.4113H1835.52V299.805H1804.98V0H1834.54L1972.48 235.979H1974.95V0H2005Z" fill="white"/>
<path d="M1742.19 149.903C1742.19 180.681 1735.59 207.28 1722.4 229.699C1709.2 252.118 1691.1 269.407 1668.1 281.566C1645.1 293.725 1618.82 299.805 1589.28 299.805C1559.74 299.805 1533.46 293.725 1510.46 281.566C1487.46 269.407 1469.36 252.118 1456.16 229.699C1442.97 207.28 1436.37 180.681 1436.37 149.903C1436.37 119.124 1442.97 92.5254 1456.16 70.1065C1469.36 47.6877 1487.46 30.3985 1510.46 18.2391C1533.46 6.0797 1559.74 0 1589.28 0C1618.82 0 1645.1 6.0797 1668.1 18.2391C1691.1 30.3985 1709.2 47.6877 1722.4 70.1065C1735.59 92.5254 1742.19 119.124 1742.19 149.903ZM1701.59 149.903C1701.59 124.634 1696.57 103.307 1686.54 85.9233C1676.61 68.5391 1663.14 55.3823 1646.11 46.4527C1629.2 37.5231 1610.25 33.0584 1589.28 33.0584C1568.31 33.0584 1549.31 37.5231 1532.28 46.4527C1515.36 55.3823 1501.89 68.5391 1491.85 85.9233C1481.93 103.307 1476.97 124.634 1476.97 149.903C1476.97 175.171 1481.93 196.498 1491.85 213.882C1501.89 231.266 1515.36 244.423 1532.28 253.352C1549.31 262.282 1568.31 266.747 1589.28 266.747C1610.25 266.747 1629.2 262.282 1646.11 253.352C1663.14 244.423 1676.61 231.266 1686.54 213.882C1696.57 196.498 1701.59 175.171 1701.59 149.903Z" fill="white"/>
<path d="M1375.02 129H1129.28L1129.28 164H1375.02V129Z" fill="white"/>
<path d="M1375.02 265H1129.28L1129.28 300H1375.02V265Z" fill="white"/>
<ellipse cx="450.742" cy="245.639" rx="19.7418" ry="19.639" fill="#027CEE"/>
<path d="M153.351 299.805L0 0H53.0204L177.007 252.375H181.901L246.147 133.247H290.751L205.556 299.805H153.351Z" fill="#027CEE"/>
<path d="M218.063 68.6121H329.329L304.7 112.862L235.639 112.588L218.063 68.6121Z" fill="#027CEE"/>
<path d="M201.008 0H350.851L335.061 34.3061H212.346L201.008 0Z" fill="#027CEE"/>
<path d="M1375 6H1129L1129 40H1375V6Z" fill="white"/>
</svg>
